<svg width="24" height="24" viewBox="0 0 24 24" fill="none" xmlns="http://www.w3.org/2000/svg">
<rect width="24" height="24" rx="12" fill="#1B1B18"/>
<g style="mix-blend-mode:difference">
<path d="M8 6.6C8 6.26863 8.26863 6 8.6 6H9.65C9.98137 6 10.25 6.26863 10.25 6.6V7.925C10.25 8.45838 10.25 8.72711 10.3844 8.86251C10.5208 9 10.7958 9 11.35 9L14.15 9C14.4814 9 14.75 9.26863 14.75 9.6V10.65C14.75 10.9814 14.4814 11.25 14.15 11.25H11.037C10.6649 11.25 10.4687 11.2522 10.3653 11.3513C10.2517 11.4601 10.25 11.6858 10.25 12.1539L10.25 14.675C10.25 15.2084 10.25 15.4771 10.3844 15.6125C10.5208 15.75 10.7958 15.75 11.35 15.75H15.4C15.7314 15.75 16 16.0186 16 16.35V17.4C16 17.7314 15.7314 18 15.4 18H10.85C10.5186 18 10.25 17.7314 10.25 17.4V16.6539C10.25 16.1858 10.2483 15.9601 10.1347 15.8513C10.031 15.752 9.83399 15.75 9.45978 15.75C9.45243 15.75 9.445 15.75 9.4375 15.75H8.6C8.26863 15.75 8 15.4814 8 15.15V11.85C8 11.5186 8.26863 11.25 8.6 11.25L9.15 11.25C9.70421 11.25 9.9792 11.25 10.1156 11.1125C10.25 10.9771 10.25 10.7084 10.25 10.175L10.25 9.90394C10.25 9.43578 10.2483 9.21008 10.1347 9.10128C10.0313 9.00223 9.83511 9.00005 9.46298 9H8.6C8.26863 9 8 8.73137 8 8.4V6.6Z" fill="white"/>
</g>
</svg>
